<svg width="101" height="101" viewBox="0 0 101 101" fill="none" xmlns="http://www.w3.org/2000/svg">
<path d="M19.7922 0C8.90805 0 0 8.90785 0 19.7922V81.211C0 92.0952 8.90785 101 19.7922 101H81.211C92.0953 101 101 92.0953 101 81.211V19.7922C101 8.90805 92.0953 0 81.211 0H19.7922ZM24.7703 16.667C29.989 16.667 33.2035 20.093 33.3027 24.5965C33.3027 29.0005 29.9888 32.5228 24.6693 32.5228H24.5714C19.452 32.5228 16.1431 29.0007 16.1431 24.5965C16.1431 20.0931 19.5521 16.667 24.7702 16.667H24.7703ZM69.743 37.7155C79.7796 37.7155 87.3035 44.2755 87.3035 58.3726V84.6895H72.0505V60.137C72.0505 53.9673 69.843 49.758 64.3231 49.758C60.1091 49.758 57.5974 52.5951 56.4946 55.3358C56.0917 56.3164 55.9927 57.6858 55.9927 59.0575V84.6895H40.7398C40.7398 84.6895 40.94 43.0984 40.7398 38.7919H55.9958V45.2914C58.0228 42.1641 61.6484 37.7154 69.743 37.7154V37.7155ZM17.0428 38.7952H32.2957V84.6897H17.0428V38.7952V38.7952Z" fill="url(#paint0_linear)"/>
<defs>
<linearGradient id="paint0_linear" x1="50.5" y1="0" x2="50.5" y2="101" gradientUnits="userSpaceOnUse">
<stop stop-color="#FA00FF"/>
<stop offset="1" stop-color="#B000B3"/>
</linearGradient>
</defs>
</svg>
