<svg width="68" height="68" viewBox="0 0 68 68" fill="none" xmlns="http://www.w3.org/2000/svg">
<path fill-rule="evenodd" clip-rule="evenodd" d="M33.7767 46.332C33.8436 46.4074 33.9143 46.4793 33.998 46.5682C34.0866 46.4693 34.1618 46.3874 34.2355 46.3036C38.5064 41.4695 42.7771 36.6354 47.0479 31.8009C50.939 27.3963 54.8283 22.9903 58.725 18.5908C58.8983 18.3953 58.9099 18.2674 58.7652 18.0484C57.5744 16.2479 56.2137 14.59 54.6791 13.0725C54.4626 12.8589 54.3216 12.8159 54.0554 13.0292C49.7006 16.5177 45.3355 19.9936 40.9728 23.4722C40.8862 23.541 40.7977 23.6071 40.7075 23.6767C40.6749 23.632 40.6518 23.6098 40.64 23.5826C39.7026 21.4796 38.6911 19.4051 37.8557 17.2624C37.3064 15.8542 37.9523 14.9658 39.1507 14.7348C39.7428 14.6207 40.3687 14.6806 40.9795 14.6648C41.0637 14.6625 41.1485 14.6766 41.2277 14.6829C41.2248 13.9241 40.9058 13.3991 40.2129 13.1655C39.6914 12.9895 39.156 12.8419 38.6163 12.7373C38.0157 12.6207 37.4029 12.567 36.7953 12.4859C36.0992 12.4859 35.4029 12.4859 34.7067 12.4859C34.6086 12.5072 34.5114 12.5418 34.4129 12.5475C33.1742 12.6202 32.2139 13.1553 31.616 14.2604C31.144 15.1324 30.6575 16.0005 30.2534 16.9043C29.3342 18.9593 28.4618 21.0351 27.5699 23.1022C27.4893 23.2891 27.4045 23.4742 27.3083 23.6899C22.7643 20.0449 18.2412 16.4163 13.6579 12.7394C13.5596 12.8697 13.4913 12.9885 13.3971 13.0813C11.8371 14.6175 10.463 16.3044 9.26019 18.134C9.10117 18.3758 9.11576 18.5093 9.30689 18.7247C17.468 27.9232 25.6217 37.1283 33.7767 46.332Z" fill="url(#paint0_linear)"/>
<path fill-rule="evenodd" clip-rule="evenodd" d="M33.9935 47.728C32.0596 45.5707 30.145 43.435 28.2097 41.2759C24.3765 46.8944 20.5717 52.4716 16.7596 58.059C16.8261 58.1136 16.8701 58.1544 16.919 58.1888C21.0882 61.1444 25.7091 62.9171 30.79 63.4836C31.3782 63.5494 31.9674 63.6037 32.5562 63.6632C33.5393 63.6632 34.5223 63.6632 35.5053 63.6632C35.86 63.6269 36.2146 63.5852 36.5697 63.5543C41.8699 63.0925 46.6927 61.3241 51.047 58.2707C51.1267 58.2147 51.2004 58.1498 51.2888 58.08C47.4459 52.4738 43.618 46.8886 39.7717 41.2767C37.8353 43.4387 35.925 45.5716 33.9935 47.728Z" fill="url(#paint1_linear)"/>
<path fill-rule="evenodd" clip-rule="evenodd" d="M13.9827 26.8414C14.0491 26.7814 14.1372 26.7458 14.221 26.6954C12.2397 24.3041 10.3163 21.9823 8.37738 19.6422C8.32413 19.7171 8.28526 19.7626 8.25685 19.8139C6.34255 23.2651 5.15873 26.9498 4.72389 30.8731C4.65633 31.481 4.60148 32.0903 4.54075 32.6989C4.54075 33.5795 4.54075 34.4603 4.54075 35.3409C4.62147 35.279 4.70704 35.2224 4.78237 35.1541C7.84915 32.3835 10.9148 29.6113 13.9827 26.8414Z" fill="url(#paint2_linear)"/>
<path fill-rule="evenodd" clip-rule="evenodd" d="M63.4062 32.4639C63.1338 28.0231 61.9236 23.855 59.7752 19.9595C59.7346 19.8854 59.6836 19.8172 59.6238 19.7256C57.6757 22.0768 55.7528 24.3982 53.7951 26.761C53.8736 26.8165 53.9365 26.8523 53.9888 26.8997C57.0707 29.6847 60.1516 32.4708 63.234 35.255C63.2998 35.3143 63.3836 35.3535 63.4592 35.4022C63.4592 34.5419 63.4592 33.6819 63.4592 32.8219C63.4411 32.7025 63.4135 32.5838 63.4062 32.4639Z" fill="url(#paint3_linear)"/>
<path fill-rule="evenodd" clip-rule="evenodd" d="M20.0124 33.6858C19.9346 33.7801 19.8912 33.8373 19.8431 33.8899C15.8215 38.2871 11.8001 42.6849 7.77404 47.0785C7.64194 47.2223 7.62674 47.325 7.71644 47.5005C9.01959 50.0532 10.6555 52.3695 12.6248 54.4507C12.6776 54.5067 12.7404 54.5534 12.8105 54.6149C16.8703 49.6274 20.9154 44.6584 24.9731 39.6735C23.3237 37.6829 21.6864 35.7063 20.0124 33.6858Z" fill="url(#paint4_linear)"/>
<path fill-rule="evenodd" clip-rule="evenodd" d="M51.928 38.0996C50.6228 36.6725 49.3176 35.2457 47.9782 33.782C46.3127 35.7924 44.6715 37.7734 43.0263 39.7595C47.095 44.7574 51.1383 49.7246 55.2469 54.7715C55.3098 54.6655 55.344 54.5737 55.4058 54.5077C57.3482 52.4458 58.962 50.1532 60.2617 47.6362C60.3786 47.4098 60.3394 47.287 60.1792 47.1124C57.4246 44.1118 54.6774 41.1049 51.928 38.0996Z" fill="url(#paint5_linear)"/>
<path fill-rule="evenodd" clip-rule="evenodd" d="M14.6812 27.251C14.6381 27.2693 14.6165 27.2727 14.6028 27.285C11.3136 30.2272 8.02434 33.1691 4.7411 36.118C4.66681 36.1849 4.62221 36.3316 4.63036 36.436C4.81516 38.8556 5.27065 41.2234 6.06324 43.5183C6.42616 44.5696 6.85153 45.5994 7.27756 46.7151C11.4357 42.1591 15.5189 37.6851 19.611 33.2016C17.9523 31.1992 16.3144 29.2224 14.6812 27.251Z" fill="url(#paint6_linear)"/>
<path fill-rule="evenodd" clip-rule="evenodd" d="M63.0794 36.0255C59.908 33.1984 56.745 30.3621 53.5795 27.5286C53.5055 27.4624 53.4266 27.4016 53.3306 27.3218C51.6798 29.3144 50.0418 31.291 48.3883 33.2871C52.4808 37.771 56.564 42.2451 60.679 46.7536C60.7483 46.6087 60.7933 46.5184 60.8352 46.4266C62.2312 43.3389 63.07 40.1077 63.3614 36.7306C63.3882 36.4185 63.3071 36.2284 63.0794 36.0255Z" fill="url(#paint7_linear)"/>
<path fill-rule="evenodd" clip-rule="evenodd" d="M34.0001 0C15.2224 0 0 15.2224 0 34.0001C0 52.778 15.2224 68.0002 34.0001 68.0002C52.7781 68.0002 68.0002 52.778 68.0002 34.0001C68.0002 15.2224 52.7781 0 34.0001 0ZM33.9341 64.6992C16.9794 64.6992 3.23495 50.9547 3.23495 34.0001C3.23495 17.0454 16.9793 3.30092 33.9341 3.30092C50.8886 3.30092 64.6332 17.0453 64.6332 34.0001C64.6331 50.9547 50.8886 64.6992 33.9341 64.6992Z" fill="url(#paint8_linear)"/>
<defs>
<linearGradient id="paint0_linear" x1="34.0001" y1="0" x2="34.0001" y2="68.0002" gradientUnits="userSpaceOnUse">
<stop stop-color="#D9D9D9"/>
<stop offset="1" stop-color="white"/>
</linearGradient>
<linearGradient id="paint1_linear" x1="34.0001" y1="0" x2="34.0001" y2="68.0002" gradientUnits="userSpaceOnUse">
<stop stop-color="#D9D9D9"/>
<stop offset="1" stop-color="white"/>
</linearGradient>
<linearGradient id="paint2_linear" x1="34.0001" y1="0" x2="34.0001" y2="68.0002" gradientUnits="userSpaceOnUse">
<stop stop-color="#D9D9D9"/>
<stop offset="1" stop-color="white"/>
</linearGradient>
<linearGradient id="paint3_linear" x1="34.0001" y1="0" x2="34.0001" y2="68.0002" gradientUnits="userSpaceOnUse">
<stop stop-color="#D9D9D9"/>
<stop offset="1" stop-color="white"/>
</linearGradient>
<linearGradient id="paint4_linear" x1="34.0001" y1="0" x2="34.0001" y2="68.0002" gradientUnits="userSpaceOnUse">
<stop stop-color="#D9D9D9"/>
<stop offset="1" stop-color="white"/>
</linearGradient>
<linearGradient id="paint5_linear" x1="34.0001" y1="0" x2="34.0001" y2="68.0002" gradientUnits="userSpaceOnUse">
<stop stop-color="#D9D9D9"/>
<stop offset="1" stop-color="white"/>
</linearGradient>
<linearGradient id="paint6_linear" x1="34.0001" y1="0" x2="34.0001" y2="68.0002" gradientUnits="userSpaceOnUse">
<stop stop-color="#D9D9D9"/>
<stop offset="1" stop-color="white"/>
</linearGradient>
<linearGradient id="paint7_linear" x1="34.0001" y1="0" x2="34.0001" y2="68.0002" gradientUnits="userSpaceOnUse">
<stop stop-color="#D9D9D9"/>
<stop offset="1" stop-color="white"/>
</linearGradient>
<linearGradient id="paint8_linear" x1="34.0001" y1="0" x2="34.0001" y2="68.0002" gradientUnits="userSpaceOnUse">
<stop stop-color="#D9D9D9"/>
<stop offset="1" stop-color="white"/>
</linearGradient>
</defs>
</svg>
