<svg width="188" height="188" viewBox="0 0 188 188" fill="none" xmlns="http://www.w3.org/2000/svg">
<path fill-rule="evenodd" clip-rule="evenodd" d="M93.3827 128.094C93.5677 128.303 93.7633 128.502 93.9947 128.747C94.2397 128.474 94.4474 128.248 94.6513 128.016C106.459 114.651 118.266 101.286 130.073 87.9203C140.831 75.7429 151.584 63.5617 162.357 51.3984C162.836 50.858 162.868 50.5043 162.468 49.8989C159.176 44.9211 155.414 40.3375 151.172 36.1419C150.573 35.5513 150.183 35.4326 149.447 36.0222C137.407 45.6669 125.339 55.2767 113.278 64.894C113.038 65.0842 112.794 65.267 112.544 65.4593C112.454 65.3358 112.39 65.2743 112.358 65.1993C109.766 59.3851 106.97 53.6497 104.66 47.7257C103.141 43.8326 104.927 41.3763 108.24 40.7377C109.877 40.4223 111.608 40.5879 113.296 40.544C113.529 40.5378 113.763 40.5769 113.983 40.5943C113.974 38.4965 113.092 37.0449 111.177 36.3991C109.735 35.9126 108.255 35.5045 106.763 35.2152C105.102 34.8929 103.408 34.7443 101.728 34.5201C99.8037 34.5201 97.8788 34.5201 95.9538 34.5201C95.6827 34.5792 95.414 34.6748 95.1418 34.6905C91.7171 34.8916 89.0621 36.3708 87.409 39.426C86.1042 41.837 84.7592 44.2371 83.6418 46.7357C81.1005 52.4172 78.6885 58.1563 76.2228 63.8712C76.0001 64.3879 75.7655 64.8994 75.4995 65.496C62.9369 55.4185 50.4319 45.3865 37.7605 35.221C37.4887 35.5812 37.2998 35.9099 37.0393 36.1664C32.7264 40.4134 28.9273 45.0771 25.6021 50.1355C25.1624 50.8039 25.2027 51.1729 25.7312 51.7686C48.2942 77.1997 70.8367 102.649 93.3827 128.094Z" fill="url(#paint0_linear)"/>
<path fill-rule="evenodd" clip-rule="evenodd" d="M93.9823 131.954C88.6356 125.99 83.3421 120.085 77.9917 114.116C67.3941 129.649 56.8748 145.068 46.3356 160.516C46.5195 160.667 46.6413 160.78 46.7763 160.875C58.3029 169.046 71.0784 173.947 85.1255 175.513C86.7516 175.695 88.3805 175.846 90.0083 176.01C92.7263 176.01 95.444 176.01 98.1619 176.01C99.1426 175.909 100.123 175.794 101.105 175.709C115.758 174.432 129.091 169.543 141.13 161.101C141.35 160.946 141.554 160.767 141.798 160.574C131.174 145.075 120.591 129.633 109.957 114.118C104.604 120.095 99.3222 125.992 93.9823 131.954Z" fill="url(#paint1_linear)"/>
<path fill-rule="evenodd" clip-rule="evenodd" d="M38.6583 74.2088C38.8419 74.043 39.0856 73.9445 39.3173 73.8051C33.8394 67.1938 28.5219 60.775 23.1614 54.3052C23.0142 54.5122 22.9067 54.6381 22.8281 54.78C17.5357 64.3213 14.2628 74.5084 13.0606 85.3553C12.8738 87.036 12.7222 88.7205 12.5542 90.403C12.5542 92.8377 12.5542 95.2727 12.5542 97.7072C12.7774 97.5361 13.014 97.3796 13.2223 97.191C21.701 89.531 30.1765 81.8667 38.6583 74.2088Z" fill="url(#paint2_linear)"/>
<path fill-rule="evenodd" clip-rule="evenodd" d="M175.299 89.7533C174.546 77.4758 171.2 65.9524 165.261 55.1825C165.148 54.9776 165.007 54.789 164.842 54.5357C159.456 61.0362 154.14 67.4542 148.727 73.9864C148.945 74.14 149.118 74.239 149.263 74.3699C157.783 82.0698 166.301 89.7723 174.823 97.4699C175.005 97.6339 175.237 97.7422 175.446 97.8768C175.446 95.4984 175.446 93.1208 175.446 90.7431C175.396 90.413 175.32 90.0847 175.299 89.7533Z" fill="url(#paint3_linear)"/>
<path fill-rule="evenodd" clip-rule="evenodd" d="M55.3287 93.1313C55.1135 93.3923 54.9936 93.5504 54.8606 93.6958C43.742 105.853 32.6242 118.011 21.4933 130.158C21.128 130.556 21.086 130.84 21.334 131.325C24.9368 138.382 29.4596 144.786 34.9041 150.54C35.0501 150.695 35.2238 150.824 35.4174 150.994C46.6416 137.205 57.8251 123.467 69.0434 109.686C64.4834 104.182 59.9568 98.7176 55.3287 93.1313Z" fill="url(#paint4_linear)"/>
<path fill-rule="evenodd" clip-rule="evenodd" d="M143.565 105.334C139.957 101.389 136.349 97.4442 132.646 93.3974C128.041 98.9555 123.503 104.433 118.955 109.923C130.204 123.741 141.382 137.474 152.741 151.427C152.915 151.134 153.01 150.88 153.181 150.698C158.551 144.997 163.012 138.659 166.606 131.7C166.929 131.074 166.82 130.735 166.378 130.252C158.762 121.956 151.167 113.643 143.565 105.334Z" fill="url(#paint5_linear)"/>
<path fill-rule="evenodd" clip-rule="evenodd" d="M40.5894 75.3411C40.4702 75.3918 40.4105 75.4011 40.3726 75.4352C31.2792 83.5695 22.1853 91.7029 13.1081 99.8559C12.9027 100.041 12.7794 100.446 12.8019 100.735C13.3128 107.424 14.5721 113.971 16.7634 120.315C17.7668 123.222 18.9428 126.069 20.1206 129.154C31.6165 116.558 42.9055 104.188 54.2188 91.7927C49.6331 86.2569 45.1047 80.7915 40.5894 75.3411Z" fill="url(#paint6_linear)"/>
<path fill-rule="evenodd" clip-rule="evenodd" d="M174.396 99.5999C165.628 91.7839 156.883 83.9424 148.131 76.1086C147.927 75.9257 147.709 75.7575 147.443 75.5371C142.879 81.046 138.351 86.5106 133.779 92.0293C145.094 104.426 156.383 116.795 167.759 129.26C167.951 128.859 168.075 128.61 168.191 128.356C172.051 119.819 174.37 110.886 175.175 101.549C175.249 100.686 175.025 100.161 174.396 99.5999Z" fill="url(#paint7_linear)"/>
<path fill-rule="evenodd" clip-rule="evenodd" d="M94 0C42.0854 0 0 42.0854 0 93.9999C0 145.915 42.0854 188 94 188C145.915 188 188 145.915 188 93.9999C188 42.0854 145.915 0 94 0ZM93.8174 178.874C46.9429 178.874 8.94366 140.874 8.94366 93.9999C8.94366 47.1253 46.9427 9.12603 93.8174 9.12603C140.692 9.12603 178.691 47.1251 178.691 93.9999C178.691 140.874 140.692 178.874 93.8174 178.874Z" fill="url(#paint8_linear)"/>
<defs>
<linearGradient id="paint0_linear" x1="93.9999" y1="0" x2="93.9999" y2="188" gradientUnits="userSpaceOnUse">
<stop stop-color="#FA00FF"/>
<stop offset="1" stop-color="#B000B3"/>
</linearGradient>
<linearGradient id="paint1_linear" x1="93.9999" y1="0" x2="93.9999" y2="188" gradientUnits="userSpaceOnUse">
<stop stop-color="#FA00FF"/>
<stop offset="1" stop-color="#B000B3"/>
</linearGradient>
<linearGradient id="paint2_linear" x1="93.9999" y1="0" x2="93.9999" y2="188" gradientUnits="userSpaceOnUse">
<stop stop-color="#FA00FF"/>
<stop offset="1" stop-color="#B000B3"/>
</linearGradient>
<linearGradient id="paint3_linear" x1="93.9999" y1="0" x2="93.9999" y2="188" gradientUnits="userSpaceOnUse">
<stop stop-color="#FA00FF"/>
<stop offset="1" stop-color="#B000B3"/>
</linearGradient>
<linearGradient id="paint4_linear" x1="93.9999" y1="0" x2="93.9999" y2="188" gradientUnits="userSpaceOnUse">
<stop stop-color="#FA00FF"/>
<stop offset="1" stop-color="#B000B3"/>
</linearGradient>
<linearGradient id="paint5_linear" x1="93.9999" y1="0" x2="93.9999" y2="188" gradientUnits="userSpaceOnUse">
<stop stop-color="#FA00FF"/>
<stop offset="1" stop-color="#B000B3"/>
</linearGradient>
<linearGradient id="paint6_linear" x1="93.9999" y1="0" x2="93.9999" y2="188" gradientUnits="userSpaceOnUse">
<stop stop-color="#FA00FF"/>
<stop offset="1" stop-color="#B000B3"/>
</linearGradient>
<linearGradient id="paint7_linear" x1="93.9999" y1="0" x2="93.9999" y2="188" gradientUnits="userSpaceOnUse">
<stop stop-color="#FA00FF"/>
<stop offset="1" stop-color="#B000B3"/>
</linearGradient>
<linearGradient id="paint8_linear" x1="93.9999" y1="0" x2="93.9999" y2="188" gradientUnits="userSpaceOnUse">
<stop stop-color="#FA00FF"/>
<stop offset="1" stop-color="#B000B3"/>
</linearGradient>
</defs>
</svg>
