<svg width="23" height="23" viewBox="0 0 23 23" fill="none" xmlns="http://www.w3.org/2000/svg">
<path d="M9.10107 0C11.5148 0 13.8297 0.958889 15.5365 2.66572C17.2433 4.37256 18.2021 6.68752 18.2021 9.10135C18.2021 11.096 17.5603 12.9402 16.4729 14.4405L22.5716 20.5394C22.8353 20.7992 22.9885 21.1508 22.9994 21.5209C23.0102 21.8909 22.8778 22.2509 22.6298 22.5257C22.3818 22.8006 22.0372 22.9691 21.668 22.9962C21.2988 23.0232 20.9334 22.9067 20.6479 22.671L20.5387 22.5723L14.44 16.4734C12.8882 17.6004 11.0189 18.2058 9.10107 18.2027C6.68732 18.2027 4.37242 17.2438 2.66564 15.537C0.95886 13.8301 0 11.5152 0 9.10135C0 6.68752 0.95886 4.37256 2.66564 2.66572C4.37242 0.958889 6.68732 3.59688e-08 9.10107 0ZM9.10107 2.87411C7.44956 2.87411 5.86568 3.53019 4.69788 4.69803C3.53008 5.86586 2.87402 7.44978 2.87402 9.10135C2.87402 10.7529 3.53008 12.3368 4.69788 13.5047C5.86568 14.6725 7.44956 15.3286 9.10107 15.3286C10.7526 15.3286 12.3365 14.6725 13.5043 13.5047C14.6721 12.3368 15.3281 10.7529 15.3281 9.10135C15.3281 7.44978 14.6721 5.86586 13.5043 4.69803C12.3365 3.53019 10.7526 2.87411 9.10107 2.87411Z" fill="black"/>
</svg>
